<mxfile host="65bd71144e">
    <diagram id="sK6K-6FjCFppWSxrMHGM" name="Page-1">
        <mxGraphModel dx="820" dy="643" grid="1" gridSize="10" guides="1" tooltips="1" connect="1" arrows="1" fold="1" page="1" pageScale="1" pageWidth="850" pageHeight="1100" math="0" shadow="0">
            <root>
                <mxCell id="0"/>
                <mxCell id="1" parent="0"/>
                <mxCell id="2" value="Authentication" style="ellipse;whiteSpace=wrap;html=1;" vertex="1" parent="1">
                    <mxGeometry x="110" y="370" width="150" height="150" as="geometry"/>
                </mxCell>
                <mxCell id="3" value="CrÃ©ation de groupe" style="ellipse;whiteSpace=wrap;html=1;" vertex="1" parent="1">
                    <mxGeometry x="330" y="360" width="170" height="160" as="geometry"/>
                </mxCell>
                <mxCell id="4" value="Ajout d'un membre (inscrit ou non-inscrit) aux groupes" style="ellipse;whiteSpace=wrap;html=1;" vertex="1" parent="1">
                    <mxGeometry x="540" y="340" width="200" height="180" as="geometry"/>
                </mxCell>
                <mxCell id="6" value="Partage de fichiers" style="ellipse;whiteSpace=wrap;html=1;" vertex="1" parent="1">
                    <mxGeometry x="150" y="620" width="195" height="180" as="geometry"/>
                </mxCell>
                <mxCell id="9" value="Envoie de notification par email" style="ellipse;whiteSpace=wrap;html=1;" vertex="1" parent="1">
                    <mxGeometry x="440" y="620" width="195" height="180" as="geometry"/>
                </mxCell>
                <mxCell id="10" value="Diagramme de classe" style="text;html=1;align=center;verticalAlign=middle;resizable=0;points=[];autosize=1;strokeColor=none;fillColor=none;" vertex="1" parent="1">
                    <mxGeometry x="320" y="170" width="140" height="30" as="geometry"/>
                </mxCell>
            </root>
        </mxGraphModel>
    </diagram>
</mxfile>